# xmcd CD database file
#
# Track frame offsets:
#	150
#	13011
#	26884
#	38894
#	53591
#	63928
#	75837
#	90060
#	103718
#	121122
#	134505
#	144556
#	157391
#	169918
#	187248
#	201685
#	217584
#	231913
#	249993
#	261621
#	275101
#	289336
#	303134
#	314556
#	326785
#
# Disc length: 4566 seconds
#
# Revision: 1
# Processed by: cddbd v1.5.2PL0 Copyright (c) Steve Scherf et al.
# Submitted via: CDex 1.51
#
DISCID=7711d419
DTITLE=Barbara Ray - - The Heart And Soul CD2
DYEAR=1999
DGENRE=Country
TTITLE0=As Usual
TTITLE1=Teddy Bear Song
TTITLE2=To Daddy
TTITLE3=The last one to Touch Me
TTITLE4=Ragged Angel
TTITLE5=Somebody Loves You
TTITLE6=The Rainbow in Daddy's Eyes
TTITLE7=Let the Big Wheels Roll
TTITLE8=Bedtime Story
TTITLE9=In the Middle of the Night
TTITLE10=After the Fire is Gone
TTITLE11=Womanhood
TTITLE12=The Greatest Christmas Gift
TTITLE13=Mississippi
TTITLE14=Payin' My Dues Again
TTITLE15=Me and Bobby McGee
TTITLE16=I'm not Lisa
TTITLE17=Ballad of Lucy Jordan
TTITLE18=Wolverton Mountain
TTITLE19=Made for Each Other
TTITLE20=Sayonara
TTITLE21=Down the Mississippi
TTITLE22=I Never Knew the Devil's Eyes Were Blue
TTITLE23=What's Wrong With the Way We're Doing it Now
TTITLE24=Voices
EXTD=YEAR: 1999
EXTT0=
EXTT1=
EXTT2=
EXTT3=
EXTT4=
EXTT5=
EXTT6=
EXTT7=
EXTT8=
EXTT9=
EXTT10=
EXTT11=
EXTT12=
EXTT13=
EXTT14=
EXTT15=
EXTT16=
EXTT17=
EXTT18=
EXTT19=
EXTT20=
EXTT21=
EXTT22=
EXTT23=
EXTT24=
PLAYORDER=
